<svg width="34" height="34" viewBox="0 0 34 34" fill="none" xmlns="http://www.w3.org/2000/svg">
<path d="M29.6165 28.0022C31.8998 25.2011 33.2695 21.626 33.2695 17.7305C33.2695 8.74504 25.9854 1.46094 17 1.46094C8.01457 1.46094 0.730469 8.74504 0.730469 17.7305C0.730469 21.626 2.10023 25.2011 4.38348 28.0022H29.6165Z" fill="#73C3F9"/>
<path d="M29.6172 2.78906V28.0022C26.6342 31.6625 22.09 34 17 34C14.3066 34 11.7665 33.3459 9.5293 32.1871C7.53844 31.1565 5.7873 29.7261 4.38281 28.0022V2.78906C4.38281 2.05527 4.97715 1.46094 5.71094 1.46094H28.2891C29.0229 1.46094 29.6172 2.05527 29.6172 2.78906Z" fill="#DEEEFF"/>
<path d="M9.5293 1.46094V32.1871C7.53844 31.1565 5.7873 29.7261 4.38281 28.0022V2.78906C4.38281 2.05527 4.97715 1.46094 5.71094 1.46094H9.5293Z" fill="#D3DCFB"/>
<path d="M23.1426 9.13086H14.5098C14.2347 9.13086 14.0117 8.90793 14.0117 8.63281C14.0117 8.35769 14.2347 8.13477 14.5098 8.13477H23.1426C23.4176 8.13477 23.6406 8.35769 23.6406 8.63281C23.6406 8.90793 23.4176 9.13086 23.1426 9.13086Z" fill="#BEC8F7"/>
<path d="M26.9609 11.7871H14.5098C14.2347 11.7871 14.0117 11.5642 14.0117 11.2891C14.0117 11.0139 14.2347 10.791 14.5098 10.791H26.9609C27.236 10.791 27.459 11.0139 27.459 11.2891C27.459 11.5642 27.236 11.7871 26.9609 11.7871Z" fill="#BEC8F7"/>
<path d="M10.8574 12.4512H8.20117C7.56042 12.4512 7.03906 11.9298 7.03906 11.2891V8.63281C7.03906 7.99206 7.56042 7.4707 8.20117 7.4707H10.8574C11.4982 7.4707 12.0195 7.99206 12.0195 8.63281V11.2891C12.0195 11.9298 11.4982 12.4512 10.8574 12.4512ZM8.20117 8.4668C8.10966 8.4668 8.03516 8.54124 8.03516 8.63281V11.2891C8.03516 11.3806 8.10966 11.4551 8.20117 11.4551H10.8574C10.9489 11.4551 11.0234 11.3806 11.0234 11.2891V8.63281C11.0234 8.54124 10.9489 8.4668 10.8574 8.4668H8.20117Z" fill="#BEC8F7"/>
<path d="M23.1426 15.7715H14.5098C14.2347 15.7715 14.0117 15.5486 14.0117 15.2734C14.0117 14.9983 14.2347 14.7754 14.5098 14.7754H23.1426C23.4176 14.7754 23.6406 14.9983 23.6406 15.2734C23.6406 15.5486 23.4176 15.7715 23.1426 15.7715Z" fill="#BEC8F7"/>
<path d="M26.9609 18.4277H14.5098C14.2347 18.4277 14.0117 18.2048 14.0117 17.9297C14.0117 17.6546 14.2347 17.4316 14.5098 17.4316H26.9609C27.236 17.4316 27.459 17.6546 27.459 17.9297C27.459 18.2048 27.236 18.4277 26.9609 18.4277Z" fill="#BEC8F7"/>
<path d="M10.8574 19.0918H8.20117C7.56042 19.0918 7.03906 18.5704 7.03906 17.9297V15.2734C7.03906 14.6327 7.56042 14.1113 8.20117 14.1113H10.8574C11.4982 14.1113 12.0195 14.6327 12.0195 15.2734V17.9297C12.0195 18.5704 11.4982 19.0918 10.8574 19.0918ZM8.20117 15.1074C8.10966 15.1074 8.03516 15.1819 8.03516 15.2734V17.9297C8.03516 18.0213 8.10966 18.0957 8.20117 18.0957H10.8574C10.9489 18.0957 11.0234 18.0213 11.0234 17.9297V15.2734C11.0234 15.1819 10.9489 15.1074 10.8574 15.1074H8.20117Z" fill="#BEC8F7"/>
<path d="M23.1426 22.4121H14.5098C14.2347 22.4121 14.0117 22.1892 14.0117 21.9141C14.0117 21.6389 14.2347 21.416 14.5098 21.416H23.1426C23.4176 21.416 23.6406 21.6389 23.6406 21.9141C23.6406 22.1892 23.4176 22.4121 23.1426 22.4121Z" fill="#BEC8F7"/>
<path d="M26.9609 25.0684H14.5098C14.2347 25.0684 14.0117 24.8454 14.0117 24.5703C14.0117 24.2952 14.2347 24.0723 14.5098 24.0723H26.9609C27.236 24.0723 27.459 24.2952 27.459 24.5703C27.459 24.8454 27.236 25.0684 26.9609 25.0684Z" fill="#BEC8F7"/>
<path d="M10.8574 25.7324H8.20117C7.56042 25.7324 7.03906 25.2111 7.03906 24.5703V21.9141C7.03906 21.2733 7.56042 20.752 8.20117 20.752H10.8574C11.4982 20.752 12.0195 21.2733 12.0195 21.9141V24.5703C12.0195 25.2111 11.4982 25.7324 10.8574 25.7324ZM8.20117 21.748C8.10966 21.748 8.03516 21.8225 8.03516 21.9141V24.5703C8.03516 24.6619 8.10966 24.7363 8.20117 24.7363H10.8574C10.9489 24.7363 11.0234 24.6619 11.0234 24.5703V21.9141C11.0234 21.8225 10.9489 21.748 10.8574 21.748H8.20117Z" fill="#BEC8F7"/>
<path d="M23.1426 29.0527H14.5098C14.2347 29.0527 14.0117 28.8298 14.0117 28.5547C14.0117 28.2796 14.2347 28.0566 14.5098 28.0566H23.1426C23.4176 28.0566 23.6406 28.2796 23.6406 28.5547C23.6406 28.8298 23.4176 29.0527 23.1426 29.0527Z" fill="#BEC8F7"/>
<path d="M26.8059 30.7129H14.5098C14.2347 30.7129 14.0117 30.9358 14.0117 31.2109C14.0117 31.4861 14.2347 31.709 14.5098 31.709H25.3275C25.8391 31.4035 26.3327 31.071 26.8059 30.7129Z" fill="#BEC8F7"/>
<path d="M10.8574 27.3926H8.20117C7.56042 27.3926 7.03906 27.9139 7.03906 28.5547V30.5941C7.92479 31.281 8.8831 31.8787 9.90097 32.373H10.8574C11.4982 32.373 12.0195 31.8517 12.0195 31.2109V28.5547C12.0195 27.9139 11.4982 27.3926 10.8574 27.3926ZM11.0234 31.2109C11.0234 31.3025 10.9489 31.377 10.8574 31.377H8.20117C8.10966 31.377 8.03516 31.3025 8.03516 31.2109V28.5547C8.03516 28.4631 8.10966 28.3887 8.20117 28.3887H10.8574C10.9489 28.3887 11.0234 28.4631 11.0234 28.5547V31.2109Z" fill="#BEC8F7"/>
<path d="M21.9038 19.9972L32.6758 9.22522C33.4501 8.45092 33.474 7.18967 32.7063 6.40873C32.696 6.39817 32.6855 6.38768 32.6749 6.37732C31.894 5.60973 30.6327 5.63357 29.8584 6.40787L19.0864 17.1799L21.9038 19.9972Z" fill="#FFDD40"/>
<path d="M23.8353 12.4309L19.0864 17.1798L21.9038 19.9972L26.6526 15.2484C25.8745 16.0261 24.6133 16.0261 23.8354 15.2482C23.0575 14.4702 23.0575 13.2089 23.8353 12.4309Z" fill="#FFC839"/>
<path d="M33.096 6.92667C32.8708 6.53699 32.5467 6.21273 32.1569 5.98755L20.0256 18.1189L20.9647 19.058L33.096 6.92667Z" fill="#FFC839"/>
<path d="M23.8355 15.2483C23.6708 15.0836 23.5414 14.8971 23.4464 14.6982L20.0256 18.1191L20.9647 19.0582L24.3855 15.6374C24.1867 15.5424 24.0002 15.413 23.8355 15.2483Z" fill="#FFB332"/>
<path d="M21.9038 19.9972L17.6328 22.2039C17.2144 22.4201 16.7617 21.9789 16.967 21.555L19.0864 17.1799C20.7103 17.0021 22.0815 18.3732 21.9038 19.9972Z" fill="#FBB989"/>
<path d="M17.6329 22.2038L19.6093 21.1827C19.4899 20.3533 18.8553 19.6923 18.0315 19.5392L17.9508 19.5242L16.9671 21.5549C16.7618 21.9789 17.2144 22.42 17.6329 22.2038Z" fill="#6C5475"/>
<path d="M9.5293 0C10.2628 0 10.8574 0.594602 10.8574 1.32812V3.98438C10.8574 4.7179 10.2628 5.3125 9.5293 5.3125C8.79577 5.3125 8.20117 4.7179 8.20117 3.98438V1.32812C8.20117 0.594602 8.79577 0 9.5293 0Z" fill="#6C5475"/>
<path d="M9.5293 2.65625C8.79577 2.65625 8.20117 2.06165 8.20117 1.32812V3.98438C8.20117 4.7179 8.79577 5.3125 9.5293 5.3125C10.2628 5.3125 10.8574 4.7179 10.8574 3.98438V1.32812C10.8574 2.06165 10.2628 2.65625 9.5293 2.65625Z" fill="#543E5B"/>
<path d="M14.5098 0C15.2433 0 15.8379 0.594602 15.8379 1.32812V3.98438C15.8379 4.7179 15.2433 5.3125 14.5098 5.3125C13.7762 5.3125 13.1816 4.7179 13.1816 3.98438V1.32812C13.1816 0.594602 13.7762 0 14.5098 0Z" fill="#6C5475"/>
<path d="M14.5098 2.65625C13.7762 2.65625 13.1816 2.06165 13.1816 1.32812V3.98438C13.1816 4.7179 13.7762 5.3125 14.5098 5.3125C15.2433 5.3125 15.8379 4.7179 15.8379 3.98438V1.32812C15.8379 2.06165 15.2433 2.65625 14.5098 2.65625Z" fill="#543E5B"/>
<path d="M19.4902 0C20.2238 0 20.8184 0.594602 20.8184 1.32812V3.98438C20.8184 4.7179 20.2238 5.3125 19.4902 5.3125C18.7567 5.3125 18.1621 4.7179 18.1621 3.98438V1.32812C18.1621 0.594602 18.7567 0 19.4902 0Z" fill="#6C5475"/>
<path d="M24.4707 0C25.2042 0 25.7988 0.594602 25.7988 1.32812V3.98438C25.7988 4.7179 25.2042 5.3125 24.4707 5.3125C23.7372 5.3125 23.1426 4.7179 23.1426 3.98438V1.32812C23.1426 0.594602 23.7372 0 24.4707 0Z" fill="#6C5475"/>
<path d="M9.88921 11.0951C9.75712 11.0951 9.63042 11.0426 9.53705 10.9493L8.54096 9.95316C8.34645 9.75859 8.34645 9.4433 8.54096 9.24879C8.73546 9.05436 9.05083 9.05436 9.24526 9.24879L9.88921 9.89273L11.8333 7.94856C12.0278 7.75413 12.3432 7.75413 12.5376 7.94856C12.7321 8.14313 12.7321 8.45843 12.5376 8.65293L10.2413 10.9493C10.148 11.0426 10.0214 11.0951 9.88921 11.0951Z" fill="#FF7186"/>
<path d="M9.88921 17.7357C9.75712 17.7357 9.63042 17.6833 9.53705 17.5899L8.54096 16.5938C8.34645 16.3992 8.34645 16.0839 8.54096 15.8894C8.73546 15.695 9.05083 15.695 9.24526 15.8894L9.88921 16.5334L11.8333 14.5892C12.0278 14.3948 12.3432 14.3948 12.5376 14.5892C12.7321 14.7838 12.7321 15.0991 12.5376 15.2936L10.2413 17.5899C10.148 17.6833 10.0214 17.7357 9.88921 17.7357Z" fill="#FF7186"/>
<path d="M9.88921 24.3764C9.75712 24.3764 9.63042 24.3239 9.53705 24.2305L8.54096 23.2344C8.34645 23.0399 8.34645 22.7246 8.54096 22.5301C8.73546 22.3356 9.05083 22.3356 9.24526 22.5301L9.88921 23.174L11.8333 21.2298C12.0278 21.0354 12.3432 21.0354 12.5376 21.2298C12.7321 21.4244 12.7321 21.7397 12.5376 21.9342L10.2413 24.2305C10.148 24.3239 10.0214 24.3764 9.88921 24.3764Z" fill="#FF7186"/>
<path d="M19.4902 2.65625C18.7567 2.65625 18.1621 2.06165 18.1621 1.32812V3.98438C18.1621 4.7179 18.7567 5.3125 19.4902 5.3125C20.2238 5.3125 20.8184 4.7179 20.8184 3.98438V1.32812C20.8184 2.06165 20.2238 2.65625 19.4902 2.65625Z" fill="#543E5B"/>
<path d="M24.4707 2.65625C23.7372 2.65625 23.1426 2.06165 23.1426 1.32812V3.98438C23.1426 4.7179 23.7372 5.3125 24.4707 5.3125C25.2042 5.3125 25.7988 4.7179 25.7988 3.98438V1.32812C25.7988 2.06165 25.2042 2.65625 24.4707 2.65625Z" fill="#543E5B"/>
</svg>
