<svg width="123" height="26" viewBox="0 0 123 26" fill="none" xmlns="http://www.w3.org/2000/svg">
<g clip-path="url(#clip0)">
<path d="M43.5636 14.9753L42.8364 17.0311H42.7758C42.6546 16.5675 42.4324 15.8621 42.0689 15.0156L38.1705 5.24042H34.353V20.8203H36.8778V11.2063C36.8778 10.6017 36.8778 9.91639 36.8576 9.06987C36.8374 8.64662 36.797 8.32414 36.7768 8.08228H36.8374C36.9586 8.68693 37.1 9.13034 37.201 9.41251L41.8871 20.78H43.6646L48.3102 9.31173C48.4112 9.04972 48.5122 8.52569 48.6132 8.08228H48.6738C48.6132 9.23111 48.5728 10.259 48.5526 10.8838V20.7598H51.2391V5.20011H47.5629L43.5636 14.9753ZM53.7841 9.5939H56.4099V20.7598H53.7841V9.5939ZM55.1172 4.87763C54.6728 4.87763 54.3093 5.03887 54.0063 5.32104C53.7033 5.60321 53.5417 5.966 53.5417 6.40941C53.5417 6.83266 53.7033 7.19546 54.0063 7.47763C54.3093 7.7598 54.6728 7.90088 55.1172 7.90088C55.5616 7.90088 55.9453 7.73964 56.2281 7.47763C56.5311 7.19546 56.6927 6.83266 56.6927 6.40941C56.6927 5.98615 56.5311 5.62336 56.2281 5.32104C55.9655 5.03887 55.5818 4.87763 55.1172 4.87763ZM65.7215 9.49313C65.2367 9.39235 64.7318 9.33189 64.247 9.33189C63.0553 9.33189 61.9645 9.59391 61.0556 10.1179C60.1467 10.642 59.4195 11.3675 58.9549 12.2745C58.4702 13.2017 58.2278 14.2699 58.2278 15.4993C58.2278 16.5675 58.4702 17.5148 58.9347 18.3815C59.3993 19.228 60.0457 19.9133 60.9142 20.3769C61.7424 20.8404 62.7119 21.0823 63.8026 21.0823C65.0549 21.0823 66.1255 20.8203 66.9738 20.3365L66.994 20.3164V17.8978L66.893 17.9784C66.5093 18.2606 66.0649 18.5024 65.6205 18.6435C65.1559 18.8048 64.7318 18.8854 64.3682 18.8854C63.3179 18.8854 62.4897 18.5831 61.904 17.9179C61.298 17.273 60.995 16.3862 60.995 15.2776C60.995 14.1288 61.298 13.2218 61.9242 12.5567C62.5503 11.8916 63.3785 11.5489 64.3884 11.5489C65.2367 11.5489 66.1053 11.8311 66.893 12.3955L66.994 12.4761V9.91639L66.9738 9.89623C66.6304 9.75515 66.2467 9.5939 65.7215 9.49313ZM74.3867 9.41251C73.7404 9.41251 73.1344 9.61406 72.6093 10.0373C72.1649 10.4001 71.8619 10.9241 71.5993 11.5489H71.5791V9.5939H68.9533V20.7598H71.5791V15.0559C71.5791 14.0885 71.7811 13.2823 72.2255 12.6978C72.6698 12.0931 73.2354 11.7908 73.9222 11.7908C74.1646 11.7908 74.4069 11.8513 74.7099 11.8916C74.9927 11.9722 75.1947 12.0528 75.3361 12.1536L75.4371 12.2342V9.61406L75.3765 9.5939C75.1947 9.47297 74.8311 9.41251 74.3867 9.41251ZM81.5371 9.35205C79.699 9.35205 78.2245 9.89623 77.1944 10.9644C76.144 12.0327 75.6391 13.504 75.6391 15.3582C75.6391 17.0916 76.1642 18.5024 77.1742 19.5303C78.1841 20.5381 79.5576 21.0621 81.2745 21.0621C83.0722 21.0621 84.5063 20.5179 85.5364 19.4296C86.5867 18.3412 87.0917 16.89 87.0917 15.0962C87.0917 13.3226 86.6069 11.9117 85.6172 10.8838C84.6679 9.85592 83.2742 9.35205 81.5371 9.35205ZM83.6377 17.9381C83.153 18.5629 82.3854 18.8652 81.4361 18.8652C80.4867 18.8652 79.7192 18.5629 79.1738 17.8978C78.6285 17.273 78.3659 16.366 78.3659 15.2172C78.3659 14.028 78.6487 13.121 79.1738 12.4761C79.7192 11.8311 80.4665 11.5086 81.4159 11.5086C82.345 11.5086 83.0722 11.811 83.5973 12.4358C84.1225 13.0606 84.4053 13.9675 84.4053 15.1567C84.3649 16.366 84.1427 17.3133 83.6377 17.9381ZM92.9493 14.2296C92.1212 13.8869 91.596 13.6249 91.3536 13.4032C91.1516 13.2017 91.0506 12.9195 91.0506 12.5567C91.0506 12.2544 91.1718 11.952 91.4748 11.7505C91.7778 11.5489 92.1212 11.4482 92.6261 11.4482C93.0705 11.4482 93.5351 11.5288 93.9794 11.6497C94.4238 11.7706 94.8278 11.952 95.151 12.1939L95.252 12.2745V9.81561L95.1914 9.79546C94.8884 9.67453 94.4844 9.5536 93.9996 9.45282C93.5149 9.3722 93.0705 9.33189 92.7069 9.33189C91.4546 9.33189 90.4245 9.63421 89.6165 10.2993C88.8086 10.9241 88.4248 11.7706 88.4248 12.7582C88.4248 13.2823 88.5056 13.7458 88.6874 14.1288C88.8692 14.5117 89.1318 14.8745 89.4953 15.1769C89.8589 15.459 90.3841 15.7815 91.1112 16.0838C91.7172 16.3458 92.1818 16.5474 92.4645 16.7086C92.7473 16.8699 92.9291 17.0513 93.0705 17.1924C93.1715 17.3536 93.2321 17.5551 93.2321 17.8172C93.2321 18.5629 92.6665 18.9257 91.5152 18.9257C91.0708 18.9257 90.6063 18.8451 90.0609 18.6637C89.5155 18.4823 89.0106 18.2203 88.5864 17.9179L88.4854 17.8373V20.397L88.546 20.4172C88.9298 20.5986 89.3943 20.7195 89.9599 20.8606C90.5255 20.9613 91.0304 21.042 91.4748 21.042C92.8281 21.042 93.939 20.7396 94.7268 20.0745C95.5347 19.4296 95.9589 18.6032 95.9589 17.535C95.9589 16.7893 95.7569 16.1241 95.3126 15.6203C94.7268 15.1365 93.9996 14.6327 92.9493 14.2296ZM102.887 9.35205C101.049 9.35205 99.5745 9.89623 98.5443 10.9644C97.5142 12.0327 96.9891 13.504 96.9891 15.3582C96.9891 17.0916 97.5142 18.5024 98.5241 19.5303C99.5341 20.5381 100.908 21.0621 102.624 21.0621C104.422 21.0621 105.856 20.5179 106.886 19.4296C107.937 18.3412 108.442 16.89 108.442 15.0962C108.442 13.3226 107.957 11.9117 106.967 10.8838C106.018 9.85592 104.624 9.35205 102.887 9.35205ZM104.968 17.9381C104.483 18.5629 103.715 18.8652 102.766 18.8652C101.796 18.8652 101.049 18.5629 100.504 17.8978C99.9583 17.273 99.6957 16.366 99.6957 15.2172C99.6957 14.028 99.9785 13.121 100.504 12.4761C101.049 11.8311 101.796 11.5086 102.746 11.5086C103.655 11.5086 104.402 11.811 104.927 12.4358C105.452 13.0606 105.735 13.9675 105.735 15.1567C105.735 16.366 105.472 17.3133 104.968 17.9381ZM122.48 11.7505V9.5939H119.834V6.28848L119.753 6.30863L117.248 7.05437L117.188 7.07453V9.5939H113.229V8.18305C113.229 7.53809 113.39 7.03422 113.673 6.71173C113.956 6.38925 114.38 6.22801 114.905 6.22801C115.269 6.22801 115.653 6.30863 116.077 6.49003L116.178 6.55049V4.27298L116.117 4.25282C115.754 4.13189 115.269 4.05127 114.643 4.05127C113.855 4.05127 113.168 4.23266 112.542 4.53499C111.916 4.87763 111.451 5.34119 111.108 5.966C110.765 6.57065 110.583 7.25592 110.583 8.04197V9.5939H108.745V11.7303H110.583V20.7598H113.229V11.7505H117.188V17.4947C117.188 19.8528 118.299 21.042 120.521 21.042C120.884 21.042 121.268 20.9815 121.631 20.921C122.015 20.8404 122.298 20.7396 122.46 20.659L122.48 20.6389V18.4823L122.379 18.5629C122.217 18.6637 122.076 18.7443 121.833 18.8048C121.631 18.8652 121.45 18.8854 121.308 18.8854C120.783 18.8854 120.42 18.7644 120.157 18.4621C119.915 18.18 119.793 17.7164 119.793 17.0311V11.7505H122.48Z" fill="#737373"/>
<path d="M0.5 0H12.8818V12.355H0.5V0Z" fill="#F25022"/>
<path d="M14.1744 0H26.5562V12.355H14.1744V0Z" fill="#7FBA00"/>
<path d="M0.5 13.645H12.8818V26.0001H0.5V13.645Z" fill="#00A4EF"/>
<path d="M14.1744 13.645H26.5562V26.0001H14.1744V13.645Z" fill="#FFB900"/>
</g>
<defs>
<clipPath id="clip0">
<rect width="122" height="26" fill="white" transform="translate(0.5)"/>
</clipPath>
</defs>
</svg>
